<svg width="204" height="102" viewBox="0 0 204 102" fill="none" xmlns="http://www.w3.org/2000/svg">
<mask id="path-1-inside-1_15_98" fill="white">
<path d="M204 102C204 88.6052 201.362 75.3415 196.236 62.9663C191.11 50.5911 183.596 39.3467 174.125 29.8751C164.653 20.4035 153.409 12.8903 141.034 7.76429C128.658 2.63831 115.395 -5.85507e-07 102 0C88.6052 5.85507e-07 75.3415 2.63831 62.9663 7.76429C50.5911 12.8903 39.3467 20.4035 29.8751 29.8751C20.4035 39.3467 12.8903 50.5911 7.76428 62.9663C2.63831 75.3415 -1.17101e-06 88.6052 0 102L102 102H204Z"/>
</mask>
<path d="M204 102C204 88.6052 201.362 75.3415 196.236 62.9663C191.11 50.5911 183.596 39.3467 174.125 29.8751C164.653 20.4035 153.409 12.8903 141.034 7.76429C128.658 2.63831 115.395 -5.85507e-07 102 0C88.6052 5.85507e-07 75.3415 2.63831 62.9663 7.76429C50.5911 12.8903 39.3467 20.4035 29.8751 29.8751C20.4035 39.3467 12.8903 50.5911 7.76428 62.9663C2.63831 75.3415 -1.17101e-06 88.6052 0 102L102 102H204Z" fill="#3CA7DB" stroke="white" stroke-width="60" mask="url(#path-1-inside-1_15_98)"/>
</svg>
