<svg width="166" height="163" viewBox="0 0 166 163" fill="none" xmlns="http://www.w3.org/2000/svg">
<rect x="0.79126" y="75.9612" width="163.791" height="3.16505" fill="#A9D9EF"/>
<rect x="1.58252" y="69.6311" width="162.209" height="3.16505" fill="#A9D9EF"/>
<rect x="2.37378" y="63.301" width="160.626" height="3.16505" fill="#A9D9EF"/>
<rect x="3.9563" y="56.9709" width="157.461" height="3.16505" fill="#A9D9EF"/>
<rect x="6.33008" y="50.6409" width="152.714" height="3.16505" fill="#A9D9EF"/>
<rect x="9.49512" y="44.3108" width="146.383" height="3.16505" fill="#A9D9EF"/>
<rect x="12.6602" y="37.9805" width="140.053" height="3.16505" fill="#A9D9EF"/>
<rect x="16.6165" y="31.6504" width="131.35" height="3.16505" fill="#A9D9EF"/>
<rect x="21.364" y="25.3203" width="121.854" height="3.16505" fill="#A9D9EF"/>
<rect x="27.6941" y="18.9902" width="109.194" height="3.16505" fill="#A9D9EF"/>
<rect x="36.3979" y="12.6602" width="92.5777" height="3.16505" fill="#A9D9EF"/>
<rect x="46.6846" y="6.33008" width="72.0049" height="3.16505" fill="#A9D9EF"/>
<rect x="64.8835" width="36.3981" height="3.16505" fill="#A9D9EF"/>
<rect y="82.2913" width="165.374" height="3.16505" fill="#A9D9EF"/>
<rect width="163.791" height="2.37379" transform="matrix(1 0 0 -1 0.79126 90.9951)" fill="#A9D9EF"/>
<rect width="162.209" height="3.16505" transform="matrix(1 0 0 -1 1.58252 97.3252)" fill="#A9D9EF"/>
<rect width="160.626" height="2.37379" transform="matrix(1 0 0 -1 2.37378 102.864)" fill="#A9D9EF"/>
<rect width="157.461" height="3.16505" transform="matrix(1 0 0 -1 3.9563 109.194)" fill="#A9D9EF"/>
<rect width="152.714" height="3.16505" transform="matrix(1 0 0 -1 6.33008 115.524)" fill="#A9D9EF"/>
<rect width="146.383" height="3.16505" transform="matrix(1 0 0 -1 9.49512 121.063)" fill="#A9D9EF"/>
<rect width="140.845" height="3.16505" transform="matrix(1 0 0 -1 12.6602 127.393)" fill="#A9D9EF"/>
<rect width="130.558" height="3.16505" transform="matrix(1 0 0 -1 16.6165 132.932)" fill="#A9D9EF"/>
<rect width="121.854" height="3.16505" transform="matrix(1 0 0 -1 21.364 139.262)" fill="#A9D9EF"/>
<rect width="109.194" height="2.37379" transform="matrix(1 0 0 -1 27.6941 144.801)" fill="#A9D9EF"/>
<rect width="92.5777" height="2.37379" transform="matrix(1 0 0 -1 36.3979 150.34)" fill="#A9D9EF"/>
<rect width="72.0049" height="2.37379" transform="matrix(1 0 0 -1 46.6846 156.67)" fill="#A9D9EF"/>
<rect width="36.3981" height="3.16505" transform="matrix(1 0 0 -1 64.8835 163)" fill="#A9D9EF"/>
<rect width="165.374" height="3.16505" transform="matrix(1 0 0 -1 0 85.4563)" fill="#A9D9EF"/>
</svg>
